<svg xmlns="http://www.w3.org/2000/svg" width="1080" height="2400" viewBox="0 0 1080 2400">
  <defs>
    <radialGradient id="s2bg" cx="50%" cy="22%" r="92%">
      <stop offset="0%" stop-color="#15261e"/>
      <stop offset="55%" stop-color="#0a0e0d"/>
      <stop offset="100%" stop-color="#06090a"/>
    </radialGradient>
    <radialGradient id="s2aur" cx="50%" cy="48%" r="42%">
      <stop offset="0%" stop-color="#5bf2b9" stop-opacity="0.12"/>
      <stop offset="64%" stop-color="#5bf2b9" stop-opacity="0"/>
    </radialGradient>
  </defs>
  <rect width="1080" height="2400" fill="url(#s2bg)"/>
  <rect width="1080" height="2400" fill="url(#s2aur)"/>

  <text x="540" y="230" text-anchor="middle" font-family="Arial, Helvetica, sans-serif" font-size="78" font-weight="600" fill="#e8f0ec">Cero metadatos</text>
  <text x="540" y="316" text-anchor="middle" font-family="Arial, Helvetica, sans-serif" font-size="40" fill="#5bf2b9" opacity="0.85">El relay solo ve ruido cifrado.</text>

  <g transform="translate(440,520) scale(0.85)">
    <rect x="0" y="0" width="240" height="150" rx="26" fill="#11181a" stroke="#243033" stroke-width="2"/>
    <rect x="26" y="44" width="150" height="26" rx="13" fill="#5bf2b9" opacity="0.9"/>
    <rect x="26" y="84" width="110" height="22" rx="11" fill="#5bf2b9" opacity="0.5"/>
  </g>
  <text x="540" y="700" text-anchor="middle" font-family="Consolas, monospace" font-size="24" fill="#9fb3ab" opacity="0.8">tu dispositivo</text>

  <path d="M540 740 L540 860" stroke="#5bf2b9" stroke-width="3" stroke-opacity="0.5" stroke-dasharray="8 8"/>
  <path d="M524 844 l16 20 l16 -20" fill="none" stroke="#5bf2b9" stroke-width="3" stroke-opacity="0.5" stroke-linecap="round"/>

  <rect x="200" y="900" width="680" height="520" rx="40" fill="#0d1411" stroke="#1f2d2a" stroke-width="2"/>
  <text x="240" y="980" font-family="Consolas, monospace" font-size="30" fill="#e8f0ec">RELAY</text>
  <text x="240" y="1022" font-family="Consolas, monospace" font-size="22" fill="#6b7d76">lo único que ve:</text>
  <g fill="#243033">
    <rect x="240" y="1060" width="420" height="30" rx="8"/>
    <rect x="240" y="1108" width="560" height="30" rx="8"/>
    <rect x="240" y="1156" width="360" height="30" rx="8"/>
    <rect x="240" y="1204" width="500" height="30" rx="8"/>
  </g>
  <text x="240" y="1310" font-family="Consolas, monospace" font-size="24" fill="#5bf2b9" opacity="0.7">blob opaco · sellado · reenviado</text>
  <g transform="translate(740,960) scale(2.4)">
    <path d="M3 8 V6 a4 4 0 0 1 8 0 V8 M1.5 8 h11 v8 h-11 Z" fill="none" stroke="#5bf2b9" stroke-width="1.4" stroke-linejoin="round"/>
  </g>

  <path d="M540 1420 L540 1540" stroke="#5bf2b9" stroke-width="3" stroke-opacity="0.5" stroke-dasharray="8 8"/>
  <path d="M524 1524 l16 20 l16 -20" fill="none" stroke="#5bf2b9" stroke-width="3" stroke-opacity="0.5" stroke-linecap="round"/>

  <text x="540" y="1640" text-anchor="middle" font-family="Arial, Helvetica, sans-serif" font-size="38" fill="#e8f0ec" opacity="0.9">Lo que NUNCA registra:</text>
  <g font-family="Arial, Helvetica, sans-serif" font-size="36" fill="#e8f0ec">
    <g transform="translate(300,1720)"><path d="M0 0 l22 22 M22 0 l-22 22" stroke="#ff6b6b" stroke-width="4" stroke-linecap="round"/><text x="44" y="20" fill="#cdd8d3">tu IP</text></g>
    <g transform="translate(620,1720)"><path d="M0 0 l22 22 M22 0 l-22 22" stroke="#ff6b6b" stroke-width="4" stroke-linecap="round"/><text x="44" y="20" fill="#cdd8d3">horarios</text></g>
    <g transform="translate(300,1810)"><path d="M0 0 l22 22 M22 0 l-22 22" stroke="#ff6b6b" stroke-width="4" stroke-linecap="round"/><text x="44" y="20" fill="#cdd8d3">tamaños</text></g>
    <g transform="translate(620,1810)"><path d="M0 0 l22 22 M22 0 l-22 22" stroke="#ff6b6b" stroke-width="4" stroke-linecap="round"/><text x="44" y="20" fill="#cdd8d3">remitente</text></g>
  </g>

  <g transform="translate(540,2350) translate(-16,-16) scale(0.8)" opacity="0.9">
    <path d="M20 2 L35 10 L35 30 L20 38 L5 30 L5 10 Z" fill="none" stroke="#5bf2b9" stroke-width="2.4" stroke-linejoin="round"/>
    <rect x="13" y="15" width="14" height="3.2" rx="0.4" fill="#5bf2b9"/>
    <rect x="13" y="21.8" width="14" height="3.2" rx="0.4" fill="#5bf2b9" opacity="0.55"/>
  </g>
</svg>
